HIERARCHY
ROOT Pelvis
{
	OFFSET 0.000000 0.000000 0.000000
	CHANNELS 6 Xposition Yposition Zposition Xrotation Yrotation Zrotation
	JOINT LeftUpLeg_virtual
	{
		OFFSET 0.000000 0.000000 0.000000
		CHANNELS 3 Xrotation Yrotation Zrotation
		JOINT LeftUpLeg
		{
			OFFSET 18.735201 -5.666702 -4.541200
			CHANNELS 3 Xrotation Yrotation Zrotation
			JOINT LeftLeg
			{
				OFFSET -0.021200 -31.938179 0.493100
				CHANNELS 3 Xrotation Yrotation Zrotation
				JOINT LeftFoot
				{
					OFFSET 0.021200 -31.938179 -4.336299
					CHANNELS 3 Xrotation Yrotation Zrotation
					JOINT LeftToeBase
					{
						OFFSET 0.943001 -26.722000 15.023500
						CHANNELS 3 Xrotation Yrotation Zrotation
						End Site
						{
							OFFSET 0 0 0
						}
					}
				}
			}
		}
	}
	JOINT RightUpLeg_virtual
	{
		OFFSET 0.000000 0.000000 0.000000
		CHANNELS 3 Xrotation Yrotation Zrotation
		JOINT RightUpLeg
		{
			OFFSET -18.735201 -5.666702 -4.541200
			CHANNELS 3 Xrotation Yrotation Zrotation
			JOINT RightLeg
			{
				OFFSET 0.018946 -31.938133 0.493100
				CHANNELS 3 Xrotation Yrotation Zrotation
				JOINT RightFoot
				{
					OFFSET -0.018946 -31.938126 -4.336299
					CHANNELS 3 Xrotation Yrotation Zrotation
					JOINT RightToeBase
					{
						OFFSET -0.943001 -26.722004 15.023500
						CHANNELS 3 Xrotation Yrotation Zrotation
						End Site
						{
							OFFSET 0 0 0
						}
					}
				}
			}
		}
	}
	JOINT Hips_virtual
	{
		OFFSET 0.000000 0.000000 0.000000
		CHANNELS 3 Xrotation Yrotation Zrotation
		JOINT Hips
		{
			OFFSET -0.000000 -0.000000 -0.000000
			CHANNELS 3 Xrotation Yrotation Zrotation
			JOINT Spine
			{
				OFFSET 0.000000 10.199997 -0.299500
				CHANNELS 3 Xrotation Yrotation Zrotation
				JOINT Spine1
				{
					OFFSET 0.000000 11.900002 -1.516600
					CHANNELS 3 Xrotation Yrotation Zrotation
					JOINT Spine2
					{
						OFFSET 0.000000 13.600006 -2.842500
						CHANNELS 3 Xrotation Yrotation Zrotation
						JOINT Neck_virtual
						{
							OFFSET 0.000000 0.000000 0.000000
							CHANNELS 3 Xrotation Yrotation Zrotation
							JOINT Neck
							{
								OFFSET 0.000000 9.624100 -2.890100
								CHANNELS 3 Xrotation Yrotation Zrotation
								JOINT Head
								{
									OFFSET 0.000000 14.068802 -1.351900
									CHANNELS 3 Xrotation Yrotation Zrotation
									End Site
									{
										OFFSET 0 0 0
									}
								}
							}
						}
						JOINT LeftShoulder_virtual
						{
							OFFSET 0.000000 0.000000 0.000000
							CHANNELS 3 Xrotation Yrotation Zrotation
							JOINT LeftShoulder
							{
								OFFSET 15.263000 10.923401 -0.547700
								CHANNELS 3 Xrotation Yrotation Zrotation
								JOINT LeftArm
								{
									OFFSET 25.438599 -2.830597 -13.032500
									CHANNELS 3 Xrotation Yrotation Zrotation
									JOINT LeftForeArm
									{
										OFFSET 29.960503 0.000000 0.000000
										CHANNELS 3 Xrotation Yrotation Zrotation
										JOINT LeftHand
										{
											OFFSET 27.849251 0.000000 0.000000
											CHANNELS 3 Xrotation Yrotation Zrotation
											End Site
											{
												OFFSET 0 0 0
											}
										}
									}
								}
							}
						}
						JOINT RightShoulder_virtual
						{
							OFFSET 0.000000 0.000000 0.000000
							CHANNELS 3 Xrotation Yrotation Zrotation
							JOINT RightShoulder
							{
								OFFSET -15.263000 10.923401 -0.547700
								CHANNELS 3 Xrotation Yrotation Zrotation
								JOINT RightArm
								{
									OFFSET -25.438599 -2.830597 -13.032500
									CHANNELS 3 Xrotation Yrotation Zrotation
									JOINT RightForeArm
									{
										OFFSET -29.960503 0.000000 0.000000
										CHANNELS 3 Xrotation Yrotation Zrotation
										JOINT RightHand
										{
											OFFSET -27.849251 0.000000 0.000000
											CHANNELS 3 Xrotation Yrotation Zrotation
											End Site
											{
												OFFSET 0 0 0
											}
										}
									}
								}
							}
						}
					}
				}
			}
		}
	}
}
MOTION
Frames: 4
Frame Time: 0.03333333
7.082778 20.262798 180.697433 0.000000 0.000000 0.000000 -98.528648 -0.407069 -0.118547 -51.457836 -46.949197 27.515682 103.217532 -13.363117 5.465444 17.709273 -3.367362 -24.739995 0.000000 0.000000 0.000000 -98.528648 -0.407069 -0.118547 -57.093401 16.729174 -17.821874 98.454513 8.835709 -4.003538 12.577404 2.069200 17.968228 0.000000 0.000000 0.000000 -98.528648 -0.407069 -0.118547 0.000000 0.000000 0.000000 3.366735 -0.731557 0.509340 1.000925 -0.401115 0.100993 0.000000 0.000000 0.000000 1.005969 -0.397106 0.117013 4.347427 -0.311463 -0.021316 0.000000 0.000000 0.000000 1.005969 -0.397106 0.117013 -0.058159 -17.068288 -5.567245 63.447786 -14.953000 -43.933928 0.000014 -33.235106 0.000005 0.000000 0.000000 0.000000 1.005969 -0.397106 0.117013 -2.398643 8.004977 13.296219 81.984728 25.035415 20.086787 0.000002 33.035330 -0.000004 0.000000 0.000000 0.000000 
7.382190 20.109253 180.443787 0.000000 0.000000 0.000000 -98.552321 -0.080080 -0.064915 -52.582918 -46.912956 26.636232 103.281906 -12.544485 5.573268 17.652298 -3.411620 -25.160158 0.000000 0.000000 0.000000 -98.552321 -0.080080 -0.064915 -55.188215 15.587552 -19.497830 96.866521 8.115239 -4.020021 9.715573 2.024868 19.530253 0.000000 0.000000 0.000000 -98.552321 -0.080080 -0.064915 0.000000 0.000000 0.000000 3.641100 -0.745668 0.543583 0.996818 -0.409160 0.102272 0.000000 0.000000 0.000000 1.002254 -0.404640 0.123115 4.746705 -0.340966 0.001556 0.000000 0.000000 0.000000 1.002254 -0.404640 0.123115 -0.224978 -17.471178 -6.131979 63.391464 -14.457682 -43.758017 0.000002 -33.190369 -0.000002 0.000000 0.000000 0.000000 1.002254 -0.404640 0.123115 -2.454926 7.297286 14.160516 82.050625 23.802224 19.508788 0.000002 33.367390 -0.000002 0.000000 0.000000 0.000000 
7.624782 19.963524 180.205963 0.000000 0.000000 0.000000 -98.528375 0.259061 0.083209 -53.894875 -46.741648 25.756797 103.303633 -11.812608 5.634270 17.805304 -3.458091 -25.447994 0.000000 0.000000 0.000000 -98.528375 0.259061 0.083209 -52.976904 14.136934 -21.079408 94.936563 7.506141 -4.079436 6.644244 1.910312 21.245437 0.000000 0.000000 0.000000 -98.528375 0.259061 0.083209 0.000000 0.000000 0.000000 4.140892 -0.736420 0.484391 1.137666 -0.405697 0.070828 0.000000 0.000000 0.000000 1.143166 -0.402001 0.095219 5.090384 -0.349235 0.019897 0.000000 0.000000 0.000000 1.143166 -0.402001 0.095219 -0.154410 -16.831188 -6.895302 63.080540 -13.982382 -42.252851 -0.000009 -33.293784 0.000001 0.000000 0.000000 0.000000 1.143166 -0.402001 0.095219 -2.516774 6.886645 15.038912 80.629147 22.829685 19.944863 0.000001 32.748339 -0.000001 0.000000 0.000000 0.000000 
7.771195 19.813313 180.008987 0.000000 0.000000 0.000000 -98.545853 0.529455 0.309959 -55.196838 -46.409858 25.019244 103.344785 -11.252878 5.616725 18.081102 -3.477233 -25.518060 0.000000 0.000000 0.000000 -98.545853 0.529455 0.309959 -50.357305 12.330663 -22.696240 92.492892 7.168404 -4.074356 3.392877 1.712761 23.320323 0.000000 0.000000 0.000000 -98.545853 0.529455 0.309959 -0.000001 0.000000 0.000000 4.650712 -0.775711 0.343008 1.387987 -0.425766 0.016742 0.000000 0.000000 0.000000 1.393684 -0.423227 0.044398 5.316752 -0.334519 0.030778 0.000000 0.000000 0.000000 1.393684 -0.423227 0.044398 0.009512 -15.933920 -7.745202 62.583186 -13.462223 -40.495338 -0.000006 -33.289304 0.000000 0.000000 0.000000 0.000000 1.393684 -0.423227 0.044398 -2.620599 7.110670 15.598115 78.640968 22.506897 21.021519 0.000003 31.831899 0.000002 0.000000 0.000000 0.000000 
